<svg width="32" height="29" viewBox="0 0 32 29" fill="none" xmlns="http://www.w3.org/2000/svg">
<g filter="url(#filter0_d_203_1601)">
<path d="M27.7609 7.1998C27.7609 7.1998 27.5266 5.54512 26.8047 4.81855C25.8906 3.8623 24.8688 3.85762 24.4 3.80137C21.0438 3.55762 16.0047 3.55762 16.0047 3.55762H15.9953C15.9953 3.55762 10.9563 3.55762 7.6 3.80137C7.13125 3.85762 6.10938 3.8623 5.19531 4.81855C4.47344 5.54512 4.24375 7.1998 4.24375 7.1998C4.24375 7.1998 4 9.14512 4 11.0857V12.9045C4 14.8451 4.23906 16.7904 4.23906 16.7904C4.23906 16.7904 4.47344 18.4451 5.19062 19.1717C6.10469 20.1279 7.30469 20.0951 7.83906 20.1982C9.76094 20.3811 16 20.4373 16 20.4373C16 20.4373 21.0438 20.4279 24.4 20.1889C24.8688 20.1326 25.8906 20.1279 26.8047 19.1717C27.5266 18.4451 27.7609 16.7904 27.7609 16.7904C27.7609 16.7904 28 14.8498 28 12.9045V11.0857C28 9.14512 27.7609 7.1998 27.7609 7.1998ZM13.5203 15.1123V8.36699L20.0031 11.7514L13.5203 15.1123Z" fill="#00171F"/>
</g>
<defs>
<filter id="filter0_d_203_1601" x="0" y="0" width="32" height="32" filterUnits="userSpaceOnUse" color-interpolation-filters="sRGB">
<feFlood flood-opacity="0" result="BackgroundImageFix"/>
<feColorMatrix in="SourceAlpha" type="matrix" values="0 0 0 0 0 0 0 0 0 0 0 0 0 0 0 0 0 0 127 0" result="hardAlpha"/>
<feOffset dy="4"/>
<feGaussianBlur stdDeviation="2"/>
<feComposite in2="hardAlpha" operator="out"/>
<feColorMatrix type="matrix" values="0 0 0 0 0 0 0 0 0 0 0 0 0 0 0 0 0 0 0.25 0"/>
<feBlend mode="normal" in2="BackgroundImageFix" result="effect1_dropShadow_203_1601"/>
<feBlend mode="normal" in="SourceGraphic" in2="effect1_dropShadow_203_1601" result="shape"/>
</filter>
</defs>
</svg>
